<svg width="86" height="68" viewBox="0 0 86 68" fill="none" xmlns="http://www.w3.org/2000/svg">
    <path d="M22.0509 24.625H21.3439V23.918C21.34 21.5391 19.4103 19.6094 17.0314 19.6055H16.3244C13.9455 19.6094 12.0158 21.5391 12.0119 23.918V24.625H11.3009C8.92985 24.6289 7.00405 26.5547 7.00015 28.9258V29.6446C7.00015 32.0235 8.92595 33.9493 11.3009 33.9493H12.008V34.668H12.0119C12.0158 37.043 13.9455 38.9688 16.3244 38.9688H17.0314C19.4103 38.9688 21.34 37.043 21.3439 34.668V33.9493H22.0509C23.1954 33.9415 24.2931 33.4805 25.0939 32.6641C25.8986 31.8516 26.3439 30.75 26.3322 29.6055V28.8867C26.3049 26.5351 24.4024 24.6406 22.0509 24.625ZM24.2501 29.6055C24.2501 30.8282 23.258 31.8243 22.0313 31.8243H20.3008C19.7266 31.8243 19.2617 32.2892 19.2617 32.8634V34.6251C19.2539 35.8517 18.2578 36.8439 17.0312 36.8439H16.3242C15.0976 36.8439 14.0976 35.8517 14.0937 34.6251V32.8634C14.0937 32.59 13.9843 32.3244 13.789 32.1291C13.5937 31.9337 13.3281 31.8244 13.0507 31.8244H11.3007C10.078 31.8244 9.08195 30.8283 9.08195 29.6056V28.8868C9.10538 27.6759 10.0936 26.7071 11.3007 26.7071H13.0507C13.3281 26.7071 13.5937 26.5977 13.789 26.4024C13.9843 26.2071 14.0937 25.9415 14.0937 25.668V23.875C14.0937 22.6445 15.0898 21.6445 16.3242 21.6445H17.0312C18.2617 21.6445 19.2617 22.6445 19.2617 23.875V25.668C19.2617 25.9415 19.3711 26.2071 19.5664 26.4024C19.7617 26.5977 20.0274 26.7071 20.3008 26.7071H22.0508C23.2539 26.7188 24.2266 27.6837 24.25 28.8868L24.2501 29.6055ZM62.9881 34.336V34.3321C62.9921 32.4454 61.8593 30.7383 60.1171 30.0157C58.371 29.2892 56.3631 29.6876 55.0272 31.0196C53.6913 32.3516 53.2889 34.3594 54.0116 36.1055C54.7304 37.8516 56.4336 38.9883 58.3242 38.9883C60.9023 38.9961 63 36.9141 63.0117 34.3321L62.9881 34.336ZM58.3201 36.9102L58.3241 36.9063C57.2772 36.9063 56.3358 36.2774 55.9335 35.3086C55.535 34.3438 55.7577 33.2305 56.4999 32.4922C57.2421 31.754 58.3554 31.5352 59.3202 31.9375C60.285 32.3438 60.91 33.2891 60.9061 34.332C60.9022 35.7461 59.7577 36.8945 58.3436 36.9062L58.3201 36.9102ZM67.0896 30.2969L67.0936 30.293C68.9881 30.3048 70.703 29.1719 71.4295 27.4219C72.1599 25.6758 71.7615 23.6602 70.4217 22.3203C69.0819 20.9844 67.0623 20.5898 65.3162 21.3242C63.5701 22.0547 62.4411 23.7734 62.4567 25.668C62.4802 28.2227 64.5584 30.2852 67.113 30.293L67.0896 30.2969ZM67.0896 23.0586L67.0936 23.0508C68.1366 23.0391 69.0897 23.6563 69.4998 24.6172C69.9099 25.5782 69.7029 26.6914 68.9724 27.4414C68.2419 28.1875 67.1365 28.4219 66.1638 28.0352C65.1951 27.6446 64.5544 26.711 64.5427 25.668C64.5349 24.9766 64.8005 24.3125 65.2849 23.8242C65.7654 23.332 66.4255 23.0546 67.113 23.0507L67.0896 23.0586ZM44.7616 23.8321C44.7616 26.8126 42.3436 29.2305 39.3632 29.2305C36.3828 29.2305 33.9687 26.8125 33.9687 23.8321C33.9687 23.2579 34.4335 22.793 35.0117 22.793C35.5859 22.793 36.0508 23.2578 36.0508 23.8321C36.0508 25.6641 37.5352 27.1446 39.3633 27.1446C41.1953 27.1446 42.6758 25.6641 42.6758 23.8321C42.6758 23.2579 43.1445 22.793 43.7188 22.793C44.293 22.793 44.7616 23.2578 44.7616 23.8321ZM53.4568 19.4805C53.4568 20.0547 52.992 20.5196 52.4177 20.5196C51.8396 20.5196 51.3747 20.0547 51.3747 19.4805C51.2771 17.7266 49.8239 16.3516 48.0661 16.3516C46.3083 16.3516 44.8591 17.7266 44.7614 19.4805C44.7614 20.0547 44.2927 20.5196 43.7184 20.5196C43.1442 20.5196 42.6754 20.0547 42.6754 19.4805C42.8044 16.5938 45.1793 14.3203 48.066 14.3203C50.9566 14.3203 53.3318 16.5937 53.4568 19.4805ZM33.9688 19.4805C33.8712 17.7266 32.418 16.3516 30.6602 16.3516C28.9024 16.3516 27.4532 17.7266 27.3555 19.4805C27.3555 20.0547 26.8868 20.5196 26.3125 20.5196C25.7383 20.5196 25.2695 20.0547 25.2695 19.4805C25.3985 16.5938 27.7734 14.3203 30.6601 14.3203C33.5507 14.3203 35.9257 16.5937 36.0507 19.4805C36.0507 20.0547 35.5859 20.5196 35.0116 20.5196C34.4335 20.5196 33.9688 20.0547 33.9688 19.4805ZM75.2309 8.79339V6.33249C75.2309 3.35199 72.8128 0.937988 69.8324 0.937988H53.4184C50.4379 0.937988 48.02 3.35209 48.02 6.33249V8.68799H39.438V6.33249C39.438 3.35589 37.0278 0.941888 34.0513 0.937988H17.6373C14.6568 0.941894 12.2467 3.35599 12.2389 6.33249V8.68799C5.65305 8.68408 0.304945 14.0161 0.293945 20.606V40.458C0.297851 45.7002 3.72754 50.3252 8.73924 51.856V56.356H6.44624H6.45015C4.07125 56.356 2.14545 58.2818 2.14545 60.6568V62.7388C2.14545 65.1177 4.07125 67.0474 6.45015 67.0513H15.1494H15.1454C17.5243 67.0474 19.4501 65.1177 19.4501 62.7388V52.1768C19.8134 52.1143 20.1689 52.0518 20.4931 51.958H20.4892C24.2353 50.9698 27.2665 48.2236 28.6142 44.5947L28.7822 44.1143C30.2275 40.2666 33.8994 37.712 38.0127 37.7002H40.7197C44.8252 37.7158 48.4931 40.2666 49.9385 44.1064L50.1143 44.6064C51.6104 48.583 55.1026 51.4736 59.294 52.2002V56.3682H57.001V56.3643C54.6221 56.3643 52.6924 58.2901 52.6885 60.669V62.751C52.6924 65.1299 54.6221 67.0596 57.001 67.0635H65.6885C66.8447 67.083 67.9619 66.6377 68.7901 65.8252C69.6143 65.0166 70.0831 63.9072 70.0831 62.751V52.333H73.8448C80.3878 52.2939 85.6808 46.9932 85.7078 40.45V20.657C85.7234 14.6218 81.2235 9.52339 75.2309 8.79339ZM73.1488 6.33639L73.1449 8.68799H66.5316V6.33249C66.5238 5.12939 66.1137 3.96139 65.3636 3.01999H69.8324C71.6644 3.01999 73.1449 4.50439 73.1449 6.33249L73.1488 6.33639ZM50.1178 6.33639L50.1139 6.33248C50.1218 4.51218 51.5944 3.03168 53.4186 3.01998H61.1256C62.9537 3.02779 64.4342 4.50828 64.4381 6.33248V8.68798H50.1141L50.1178 6.33639ZM37.3558 6.33639V8.68799H30.7386V6.33249C30.7347 5.12939 30.3246 3.96139 29.5745 3.01999H34.055H34.0511C35.8792 3.0278 37.3558 4.50829 37.3558 6.33249L37.3558 6.33639ZM14.3248 6.33639V6.33248C14.3288 4.50828 15.8092 3.02778 17.6373 3.01998H25.3443C27.1724 3.01998 28.6568 4.50438 28.6568 6.33248V8.68798H14.3248V6.33639ZM15.1491 64.9814H6.44986C5.22326 64.9736 4.23107 63.9775 4.23107 62.7509V60.6689C4.23107 59.4423 5.22325 58.4501 6.44986 58.4501H9.78186C10.0592 58.4501 10.3248 58.3407 10.5201 58.1454C10.7155 57.9501 10.8248 57.6845 10.8248 57.4071V52.2821L11.5748 52.3642H17.3678V62.7822H17.3639C17.3483 63.997 16.36 64.9735 15.1451 64.9813L15.1491 64.9814ZM52.1061 43.8954L51.9264 43.3759C50.1725 38.7197 45.7272 35.6259 40.7504 35.6064H38.0434C33.0629 35.622 28.6098 38.7158 26.8554 43.3759L26.6874 43.8563C25.5702 46.8485 23.0702 49.1141 19.9804 49.9266C19.1601 50.1571 18.3085 50.2704 17.457 50.2704H11.6875C6.4727 49.9891 2.38281 45.6845 2.37501 40.4579V20.6059C2.38672 15.1801 6.7812 10.7817 12.207 10.77H66.582C72 10.7934 76.3828 15.188 76.3945 20.6059V40.4579C76.3906 45.8876 71.9922 50.286 66.5625 50.2938H61.3555C57.2422 50.2938 53.5553 47.7469 52.1061 43.8954ZM65.7191 64.9814H57.0316C55.8011 64.9814 54.8011 63.9814 54.8011 62.7509V60.6689C54.8011 60.0791 55.0393 59.5127 55.4573 59.0947C55.8753 58.6767 56.4417 58.4462 57.0315 58.4502H60.3635C60.6409 58.4502 60.9065 58.3408 61.1018 58.1455C61.2971 57.9502 61.4065 57.6845 61.4065 57.4072V52.376H66.6135C66.9299 52.3916 67.2463 52.3916 67.5627 52.376H68.0002V62.794C67.9885 63.3838 67.7424 63.9502 67.3127 64.3604C66.8869 64.7705 66.3129 64.9931 65.7191 64.9814ZM83.6251 40.4504C83.6212 45.8801 79.2228 50.2824 73.7931 50.2942H73.2813C76.5352 48.0754 78.4844 44.3958 78.4883 40.4583V20.6063C78.4844 16.6688 76.5352 12.9891 73.2813 10.7704H73.7931C79.2228 10.7821 83.6212 15.1845 83.6251 20.6142V40.4504Z" fill="white"/>
</svg>
